<?xml version="1.0" encoding="UTF-8"?>
<svg width="25px" height="25px" viewBox="0 0 25 25" version="1.1" xmlns="http://www.w3.org/2000/svg" xmlns:xlink="http://www.w3.org/1999/xlink">
    <!-- Generator: Sketch 48.2 (47327) - http://www.bohemiancoding.com/sketch -->
    <title>backPattern</title>
    <desc>Created with Sketch.</desc>
    <defs></defs>
    <g id="Page-1" stroke="none" stroke-width="1" fill="none" fill-rule="evenodd">
        <g id="backPattern">
            <rect id="Rectangle-path" fill="#EA3F19" fill-rule="nonzero" x="0" y="0" width="25" height="25"></rect>
            <path d="M14.7847222,10.2152778 C13.6936488,9.12525316 11.9845122,8.95779059 10.7026169,9.81530982 C9.42072161,10.6728291 8.92312253,12.3164795 9.51415025,13.7410078 C10.105178,15.1655362 11.6202096,15.974159 13.1326548,15.6723242 C14.6451,15.3704894 15.7336873,14.042269 15.7326389,12.5 C15.7332041,11.6426452 15.392066,10.820415 14.7847222,10.2152778 Z M14.2534722,13.7465278 C14.2223295,13.799639 14.1699368,13.8368744 14.1095387,13.8488213 C14.0491405,13.8607682 13.9865174,13.8462831 13.9375,13.8090278 L13.3333333,13.3506944 C13.2164511,13.2600854 13.0580294,13.2443475 12.9256049,13.3101898 C12.7931805,13.3760321 12.7101093,13.511842 12.7118056,13.6597222 L12.7118056,14.4166667 C12.7120914,14.4775618 12.6865737,14.5357293 12.6415744,14.5767581 C12.5965751,14.6177869 12.5363044,14.6378383 12.4756944,14.6319444 C12.3639213,14.6178659 12.2803668,14.522375 12.28125,14.4097222 L12.28125,13.6597222 C12.2829462,13.511842 12.1998751,13.3760321 12.0674506,13.3101898 C11.9350262,13.2443475 11.7766045,13.2600854 11.6597222,13.3506944 L11.0555556,13.8090278 C10.9935303,13.8555467 10.911399,13.8654419 10.8400998,13.834986 C10.7688005,13.80453 10.7191654,13.7383498 10.7098914,13.6613748 C10.7006175,13.5843999 10.7331136,13.5083245 10.7951389,13.4618056 L11.7326389,12.7673611 C11.8288757,12.6945059 11.8854231,12.5807732 11.8854231,12.4600694 C11.8854231,12.3393657 11.8288757,12.225633 11.7326389,12.1527778 L10.7951389,11.4583333 C10.7331136,11.4118144 10.7006175,11.335739 10.7098914,11.2587641 C10.7191654,11.1817891 10.7688005,11.1156089 10.8400998,11.0851529 C10.911399,11.0546969 10.9935303,11.0645921 11.0555556,11.1111111 L11.6597222,11.5694444 C11.7766045,11.6600534 11.9350262,11.6757914 12.0674506,11.6099491 C12.1998751,11.5441067 12.2829462,11.4082969 12.28125,11.2604167 L12.28125,10.4756944 C12.2809641,10.4147993 12.3064819,10.3566318 12.3514812,10.315603 C12.3964805,10.2745742 12.4567512,10.2545229 12.5173611,10.2604167 C12.6291342,10.2744952 12.7126887,10.3699861 12.7118056,10.4826389 L12.7118056,11.2326389 C12.7101093,11.3805191 12.7931805,11.516329 12.9256049,11.5821713 C13.0580294,11.6480136 13.2164511,11.6322757 13.3333333,11.5416667 L13.9375,11.0833333 C13.9847886,11.0475161 14.0447613,11.0327996 14.1032582,11.0426586 C14.1617551,11.0525177 14.2135913,11.0860783 14.2465278,11.1354167 C14.3088113,11.2349206 14.2829584,11.3657054 14.1875,11.4340278 L13.2604167,12.1284722 C13.1641799,12.2013274 13.1076324,12.3150601 13.1076324,12.4357639 C13.1076324,12.5564676 13.1641799,12.6702004 13.2604167,12.7430556 L14.1909722,13.4375 C14.2403945,13.4700644 14.2747843,13.5209989 14.286517,13.5790105 C14.2982496,13.637022 14.2863557,13.6973173 14.2534722,13.7465278 Z" id="Shape"></path>
            <path d="M3.93055556,0 L3.23611111,0 C3.23575711,0.857855159 2.89333995,1.68015622 2.28472222,2.28472222 C1.67958502,2.89206602 0.85735477,3.2332041 2.60268755e-16,3.23263889 L0,3.92708333 C2.16943063,3.92708418 3.9286391,2.16942978 3.93055556,0 Z" id="Shape" fill="#DFE6EE" fill-rule="nonzero"></path>
            <path d="M0.215277778,1.91666667 L0.215277778,1.15972222 C0.213581558,1.01184196 0.296652696,0.876032139 0.429077151,0.810189813 C0.561501605,0.744347486 0.719923318,0.760085446 0.836805556,0.850694444 L1.44097222,1.30902778 C1.48998965,1.34628311 1.55261272,1.36076818 1.6130109,1.34882129 C1.67340907,1.3368744 1.72580172,1.29963897 1.75694444,1.24652778 C1.81203443,1.1484872 1.78519877,1.02474503 1.69444444,0.958333333 L0.763888889,0.253472222 C0.682273703,0.192305299 0.628512714,0.101036644 0.614583333,0 L0,0 L0,2.12847222 C0.0567735054,2.12940306 0.11154341,2.1074995 0.152018824,2.06767692 C0.192494238,2.02785434 0.215285408,1.9734478 0.215277778,1.91666667 Z" id="Shape" fill="#DFE6EE" fill-rule="nonzero"></path>
            <path d="M21.7673611,-1.94780534e-15 L21.0729167,-2.44249065e-15 C21.0729158,2.16943063 22.8305702,3.9286391 25,3.93055556 L25,3.23611111 C24.1426452,3.23667632 23.320415,2.89553824 22.7152778,2.28819444 C22.1070799,1.68220843 21.765871,0.858557826 21.7673611,-2.44249065e-15 Z" id="Shape" fill="#DFE6EE" fill-rule="nonzero"></path>
            <path d="M24.3854167,0 C24.3723557,0.100491285 24.3198949,0.191673058 24.2395833,0.253472222 L23.3020833,0.947916667 C23.2400581,0.994435624 23.2075619,1.070511 23.2168359,1.14748595 C23.2261098,1.22446089 23.275745,1.29064107 23.3470442,1.32109706 C23.4183434,1.35155304 23.5004747,1.34165785 23.5625,1.29513889 L24.1666667,0.836805556 C24.2835489,0.746196557 24.4419706,0.730458597 24.5743951,0.796300924 C24.7068195,0.86214325 24.7898907,0.997953074 24.7881944,1.14583333 L24.7881944,1.90625 C24.7873113,2.01890279 24.8708658,2.11439365 24.9826389,2.12847222 L25,2.12847222 L25,0 L24.3854167,0 Z" id="Shape" fill="#DFE6EE" fill-rule="nonzero"></path>
            <path d="M21.0694444,25 L21.7638889,25 C21.7638884,24.1420489 22.1049456,23.3192879 22.7119342,22.7129506 C23.3189228,22.1066133 24.1420494,21.7664396 25,21.7673611 L25,21.0729167 C22.8305694,21.0729158 21.0713609,22.8305702 21.0694444,25 Z" id="Shape" fill="#DFE6EE" fill-rule="nonzero"></path>
            <path d="M24.7847222,22.9756944 L24.7847222,23.7326389 C24.7864184,23.8805191 24.7033473,24.016329 24.5709228,24.0821713 C24.4384984,24.1480136 24.2800767,24.1322757 24.1631944,24.0416667 L23.5590278,23.5833333 C23.463145,23.5114213 23.3271204,23.5308533 23.2552083,23.6267361 C23.1832963,23.7226189 23.2027283,23.8586435 23.2986111,23.9305556 L24.2361111,24.625 C24.3423708,24.7070647 24.3977393,24.8388946 24.3819444,24.9722222 L25,24.9722222 L25,22.7638889 C24.9432265,22.7629581 24.8884566,22.7848616 24.8479812,22.8246842 C24.8075058,22.8645068 24.7847146,22.9189133 24.7847222,22.9756944 Z" id="Shape" fill="#DFE6EE" fill-rule="nonzero"></path>
            <path d="M0,21.0694444 L0,21.7638889 C0.85735477,21.7633237 1.67958502,22.1044618 2.28472222,22.7118056 C2.89292014,23.3177916 3.23412896,24.1414422 3.23263889,25 L3.92708333,25 C3.92708418,22.8305694 2.16942978,21.0713609 0,21.0694444 Z" id="Shape" fill="#DFE6EE" fill-rule="nonzero"></path>
            <path d="M1.44097222,23.5833333 L0.836805556,24.0416667 C0.719923318,24.1322757 0.561501605,24.1480136 0.429077151,24.0821713 C0.296652696,24.016329 0.213581558,23.8805191 0.215277778,23.7326389 L0.215277778,22.9861111 C0.216160934,22.8734583 0.132606428,22.7779675 0.0208333333,22.7638889 L0,22.7638889 L0,25 L0.614583333,25 C0.598788479,24.8666724 0.654157007,24.7348425 0.760416667,24.6527778 L1.6875,23.9583333 C1.73882039,23.9235174 1.77325766,23.8688402 1.78248932,23.8075156 C1.79172098,23.746191 1.7749071,23.6837985 1.73611111,23.6354167 C1.66795058,23.541184 1.53726982,23.5181227 1.44097222,23.5833333 Z" id="Shape" fill="#DFE6EE" fill-rule="nonzero"></path>
            <path d="M12.5,8.56944444 C10.3292141,8.56944444 8.56944444,10.3292141 8.56944444,12.5 C8.56944444,14.6707859 10.3292141,16.4305556 12.5,16.4305556 C14.6707859,16.4305556 16.4305556,14.6707859 16.4305556,12.5 C16.4305556,11.4575519 16.0164446,10.4577997 15.2793225,9.72067751 C14.5422003,8.98355536 13.5424481,8.56944444 12.5,8.56944444 Z M14.7847222,14.7847222 C13.6936488,15.8747468 11.9845122,16.0422094 10.7026169,15.1846902 C9.42072161,14.3271709 8.92312253,12.6835205 9.51415025,11.2589922 C10.105178,9.83446379 11.6202096,9.02584099 13.1326548,9.32767581 C14.6451,9.62951063 15.7336873,10.957731 15.7326389,12.5 C15.7332041,13.3573548 15.392066,14.179585 14.7847222,14.7847222 Z" id="Shape" fill="#DFE6EE" fill-rule="nonzero"></path>
            <path d="M13.2604167,12.7534722 C13.1641799,12.680617 13.1076324,12.5668843 13.1076324,12.4461806 C13.1076324,12.3254768 13.1641799,12.2117441 13.2604167,12.1388889 L14.1875,11.4444444 C14.2829584,11.3761221 14.3088113,11.2453372 14.2465278,11.1458333 C14.2135913,11.096495 14.1617551,11.0629343 14.1032582,11.0530753 C14.0447613,11.0432163 13.9847886,11.0579327 13.9375,11.09375 L13.3333333,11.5520833 C13.2164511,11.6426923 13.0580294,11.6584303 12.9256049,11.592588 C12.7931805,11.5267456 12.7101093,11.3909358 12.7118056,11.2430556 L12.7118056,10.4861111 C12.7126887,10.3734583 12.6291342,10.2779675 12.5173611,10.2638889 C12.4567512,10.2579951 12.3964805,10.2780464 12.3514812,10.3190752 C12.3064819,10.360104 12.2809641,10.4182715 12.28125,10.4791667 L12.28125,11.2361111 C12.2829462,11.3839914 12.1998751,11.5198012 12.0674506,11.5856435 C11.9350262,11.6514858 11.7766045,11.6357479 11.6597222,11.5451389 L11.0555556,11.0868056 C10.9596728,11.0148935 10.8236482,11.0343256 10.7517361,11.1302083 C10.679824,11.2260911 10.6992561,11.3621157 10.7951389,11.4340278 L11.7326389,12.1284722 C11.8288757,12.2013274 11.8854231,12.3150601 11.8854231,12.4357639 C11.8854231,12.5564676 11.8288757,12.6702004 11.7326389,12.7430556 L10.7951389,13.4375 C10.7331136,13.484019 10.7006175,13.5600943 10.7098914,13.6370693 C10.7191654,13.7140442 10.7688005,13.7802244 10.8400998,13.8106804 C10.911399,13.8411364 10.9935303,13.8312412 11.0555556,13.7847222 L11.6597222,13.3263889 C11.7766045,13.2357799 11.9350262,13.2200419 12.0674506,13.2858843 C12.1998751,13.3517266 12.2829462,13.4875364 12.28125,13.6354167 L12.28125,14.3854167 C12.2803668,14.4980695 12.3639213,14.5935603 12.4756944,14.6076389 C12.5363044,14.6135327 12.5965751,14.5934813 12.6415744,14.5524525 C12.6865737,14.5114238 12.7120914,14.4532563 12.7118056,14.3923611 L12.7118056,13.6597222 C12.7101093,13.511842 12.7931805,13.3760321 12.9256049,13.3101898 C13.0580294,13.2443475 13.2164511,13.2600854 13.3333333,13.3506944 L13.9375,13.8090278 C13.9865174,13.8462831 14.0491405,13.8607682 14.1095387,13.8488213 C14.1699368,13.8368744 14.2223295,13.799639 14.2534722,13.7465278 C14.3085622,13.6484872 14.2817266,13.524745 14.1909722,13.4583333 L13.2604167,12.7534722 Z" id="Shape" fill="#DFE6EE" fill-rule="nonzero"></path>
            <path d="M21.3194444,21.7777778 C21.4504228,21.8670153 21.6263522,21.8504891 21.7384207,21.7384207 C21.8504891,21.6263522 21.8670153,21.4504228 21.7777778,21.3194444 C19.974537,19.3935185 18.1087963,17.5277778 16.1805556,15.7222222 C16.0495772,15.6329847 15.8736478,15.6495109 15.7615793,15.7615793 C15.6495109,15.8736478 15.6329847,16.0495772 15.7222222,16.1805556 C17.525463,18.1087963 19.3912037,19.974537 21.3194444,21.7777778 Z" id="Shape" fill="#DFE6EE" fill-rule="nonzero"></path>
            <path d="M3.68055556,3.22222222 C3.54957715,3.13298473 3.37364779,3.1495109 3.26157935,3.26157935 C3.1495109,3.37364779 3.13298473,3.54957715 3.22222222,3.68055556 C5.02546296,5.6087963 6.8912037,7.47453704 8.81944444,9.27777778 C8.94663405,9.37705169 9.12908974,9.36032659 9.23611111,9.23958333 C9.35685436,9.13256196 9.37357947,8.95010628 9.27430556,8.82291667 C7.47337963,6.89467593 5.6087963,5.02777778 3.68055556,3.22222222 Z" id="Shape" fill="#DFE6EE" fill-rule="nonzero"></path>
            <path d="M16.1805556,9.27777778 C18.1087963,7.47453704 19.974537,5.6087963 21.7777778,3.68055556 C21.8670153,3.54957715 21.8504891,3.37364779 21.7384207,3.26157935 C21.6263522,3.1495109 21.4504228,3.13298473 21.3194444,3.22222222 C19.3935185,5.02546296 17.5277778,6.8912037 15.7222222,8.81944444 C15.6329847,8.95042285 15.6495109,9.12635221 15.7615793,9.23842065 C15.8736478,9.3504891 16.0495772,9.36701527 16.1805556,9.27777778 Z" id="Shape" fill="#DFE6EE" fill-rule="nonzero"></path>
            <path d="M9.23958333,15.7604167 C9.13256196,15.6396734 8.95010628,15.6229483 8.82291667,15.7222222 C6.89467593,17.525463 5.02777778,19.3912037 3.22222222,21.3194444 C3.13298473,21.4504228 3.1495109,21.6263522 3.26157935,21.7384207 C3.37364779,21.8504891 3.54957715,21.8670153 3.68055556,21.7777778 C5.6087963,19.974537 7.47453704,18.1087963 9.27777778,16.1805556 C9.37705169,16.0533659 9.36032659,15.8709103 9.23958333,15.7638889 L9.23958333,15.7604167 Z" id="Shape" fill="#DFE6EE" fill-rule="nonzero"></path>
            <path d="M12.5555556,24.2465278 C12.140781,24.2484392 11.8055512,24.585221 11.8055556,25 L13.3090278,25 C13.3090278,24.5838688 12.9716868,24.2465278 12.5555556,24.2465278 Z" id="Shape" fill="#DFE6EE" fill-rule="nonzero"></path>
            <path d="M14.9722222,24.2465278 C14.5628864,24.255962 14.2360024,24.5905555 14.2361111,25 L15.7395833,25 C15.7396177,24.7977369 15.6583305,24.603953 15.5140088,24.4622435 C15.3696871,24.3205339 15.174451,24.2427994 14.9722222,24.2465278 Z" id="Shape" fill="#DFE6EE" fill-rule="nonzero"></path>
            <circle id="Oval" fill="#DFE6EE" fill-rule="nonzero" cx="12.5555556" cy="22.5833333" r="1"></circle>
            <path d="M10.1354167,24.2465278 C9.93438291,24.2446749 9.74094543,24.3232396 9.59813645,24.4647443 C9.45532748,24.6062491 9.37499146,24.7989577 9.375,25 L10.8784722,25 C10.8785116,24.587903 10.5474743,24.252225 10.1354167,24.2465278 Z" id="Shape" fill="#DFE6EE" fill-rule="nonzero"></path>
            <path d="M-1.11022302e-16,11.6944444 L-1.11022302e-16,13.1944444 C0.416131218,13.1944444 0.753472222,12.8571034 0.753472222,12.4409722 C0.749661769,12.0275555 0.41343426,11.6944269 -1.11022302e-16,11.6944444 Z" id="Shape" fill="#DFE6EE" fill-rule="nonzero"></path>
            <path d="M-8.8817842e-16,14.1111111 L-8.8817842e-16,15.625 C0.416131218,15.625 0.753472222,15.287659 0.753472222,14.8715278 C0.755325147,14.670494 0.676760441,14.4770565 0.535255659,14.3342476 C0.393750876,14.1914386 0.2010423,14.1111026 -8.8817842e-16,14.1111111 Z" id="Shape" fill="#DFE6EE" fill-rule="nonzero"></path>
            <circle id="Oval" fill="#DFE6EE" fill-rule="nonzero" cx="2.41666667" cy="12.4479167" r="1"></circle>
            <path d="M0,9.27777767 L0,10.7638889 C0.416131218,10.7638889 0.753472222,10.4265479 0.753472222,10.0104167 C0.742187572,9.60244341 0.408129222,9.27762168 0,9.27777767 Z" id="Shape" fill="#DFE6EE" fill-rule="nonzero"></path>
            <path d="M24.2465278,12.4479167 C24.2503382,12.8613334 24.5865657,13.194462 25,13.1944444 L25,11.6944444 C24.5838688,11.6944444 24.2465278,12.0317854 24.2465278,12.4479167 Z" id="Shape" fill="#DFE6EE" fill-rule="nonzero"></path>
            <path d="M24.2465278,10.0277778 C24.255962,10.4371136 24.5905555,10.7639976 25,10.7638889 L25,9.27777778 C24.585221,9.27777337 24.2484392,9.61300319 24.2465278,10.0277778 Z" id="Shape" fill="#DFE6EE" fill-rule="nonzero"></path>
            <circle id="Oval" fill="#DFE6EE" fill-rule="nonzero" cx="22.5833333" cy="12.4479167" r="1"></circle>
            <path d="M24.2465278,14.8645833 C24.2446749,15.0656171 24.3232396,15.2590546 24.4647443,15.4018635 C24.6062491,15.5446725 24.7989577,15.6250085 25,15.625 L25,14.1111111 C24.5838688,14.1111111 24.2465278,14.4484521 24.2465278,14.8645833 Z" id="Shape" fill="#DFE6EE" fill-rule="nonzero"></path>
            <path d="M12.5555556,0.753472222 C12.9703301,0.751560798 13.30556,0.414778993 13.3055556,-1.66533454e-16 L11.8055556,-1.66533454e-16 C11.8055512,0.414778993 12.140781,0.751560798 12.5555556,0.753472222 Z" id="Shape" fill="#DFE6EE" fill-rule="nonzero"></path>
            <path d="M10.1354167,0.753472222 C10.5515479,0.753472222 10.8888889,0.416131218 10.8888889,0 L9.375,0 C9.37499146,0.2010423 9.45532748,0.393750876 9.59813645,0.535255659 C9.74094543,0.676760441 9.93438291,0.755325147 10.1354167,0.753472222 Z" id="Shape" fill="#DFE6EE" fill-rule="nonzero"></path>
            <circle id="Oval" fill="#DFE6EE" fill-rule="nonzero" cx="12.5555556" cy="2.41666667" r="1"></circle>
            <path d="M14.9722222,0.753472222 C15.3869968,0.751560798 15.7222266,0.414778993 15.7222222,-1.66533454e-16 L14.236111,-1.66533454e-16 C14.2360024,0.409444498 14.5628864,0.744038031 14.9722222,0.753472222 Z" id="Shape" fill="#DFE6EE" fill-rule="nonzero"></path>
        </g>
    </g>
</svg>