<svg enable-background="new 0 0 260 274.2" viewBox="0 0 260 274.2" xmlns="http://www.w3.org/2000/svg"><path d="m129 0c-35.9 0-65 29.1-65 65 0 23.6 12.5 44.2 31.3 55.6-9.1-4.8-19.4-7.5-30.3-7.5-35.9 0-65 29.1-65 65s29.1 65 65 65 65-29.1 65-65v-178.1c-.3 0-.7 0-1 0z" fill="#37474f"/><path d="m130 274.2v-63.7l-36.8 63.7z" fill="#37474f"/><g fill="#202f35"><path d="m131 0c35.9 0 65 29.1 65 65 0 23.6-12.5 44.2-31.3 55.6 9.1-4.8 19.4-7.5 30.3-7.5 35.9 0 65 29.1 65 65s-29.1 65-65 65-65-29.1-65-65v-178.1z"/><path d="m130 274.2v-63.7l36.8 63.7z"/></g></svg>