<?xml version="1.0" encoding="utf-8"?>
<!-- Generator: Adobe Illustrator 19.0.0, SVG Export Plug-In . SVG Version: 6.00 Build 0)  -->
<svg version="1.1" id="Layer_1" xmlns="http://www.w3.org/2000/svg" xmlns:xlink="http://www.w3.org/1999/xlink" x="0px" y="0px"
	 viewBox="0 0 170 183.6" style="enable-background:new 0 0 170 183.6;" xml:space="preserve">
<style type="text/css">
	.st0{fill:#FBB832;}
	.st1{fill:#F19033;}
	.st2{fill:#D54E4F;}
	.st3{fill:#C34445;}
	.st4{fill:#F37E30;}
	.st5{fill:#E3512F;}
</style>
<g>
	<polygon class="st0" points="63,7 85,0 85,76 18,76 0,11 42.5,11 51.3,36.1 63,32 	"/>
	<polygon class="st1" points="107,7 85,0 85,76 152,76 170,11 127.5,11 118.7,36.1 107,32 	"/>
	<polygon class="st2" points="11,50.7 85,50.7 85,61.8 14.1,61.8 	"/>
	<polygon class="st3" points="159,50.7 85,50.7 85,61.8 155.9,61.8 	"/>
	<polygon class="st4" points="46.3,21.8 63,21.8 63,32 51.3,36.1 	"/>
	<polygon class="st5" points="123.7,21.8 107,21.8 107,32 118.7,36.1 	"/>
</g>
<g id="XMLID_1_">
	<circle class="st4" cx="71.6" cy="91.7" r="5.8"/>
	<circle class="st4" cx="98.1" cy="91.6" r="5.8"/>
</g>
<g id="XMLID_55_">
	<polygon id="XMLID_61_" class="st0" points="107,176.6 85,183.6 85,107.6 152,107.6 170,172.6 127.5,172.6 118.7,147.5 107,151.6 	
		"/>
	<polygon id="XMLID_60_" class="st1" points="63,176.6 85,183.6 85,107.6 18,107.6 0,172.6 42.5,172.6 51.3,147.5 63,151.6 	"/>
	<polygon id="XMLID_59_" class="st2" points="159,132.9 85,132.9 85,121.8 155.9,121.8 	"/>
	<polygon id="XMLID_58_" class="st3" points="11,132.9 85,132.9 85,121.8 14.1,121.8 	"/>
	<polygon id="XMLID_57_" class="st4" points="123.7,161.8 107,161.8 107,151.6 118.7,147.5 	"/>
	<polygon id="XMLID_56_" class="st5" points="46.3,161.8 63,161.8 63,151.6 51.3,147.5 	"/>
</g>
</svg>
