<svg enable-background="new 0 0 170 183.6" viewBox="0 0 170 183.6" xmlns="http://www.w3.org/2000/svg"><path d="m63 7 22-7v76h-67l-18-65h42.5l8.8 25.1 11.7-4.1z" fill="#fbb832"/><path d="m107 7-22-7v76h67l18-65h-42.5l-8.8 25.1-11.7-4.1z" fill="#f19033"/><path d="m11 50.7h74v11.1h-70.9z" fill="#d54e4f"/><path d="m159 50.7h-74v11.1h70.9z" fill="#c34445"/><path d="m46.3 21.8h16.7v10.2l-11.7 4.1z" fill="#f37e30"/><path d="m123.7 21.8h-16.7v10.2l11.7 4.1z" fill="#e3512f"/><circle cx="71.6" cy="91.7" fill="#f37e30" r="5.8"/><circle cx="98.1" cy="91.6" fill="#f37e30" r="5.8"/><path d="m107 176.6-22 7v-76h67l18 65h-42.5l-8.8-25.1-11.7 4.1z" fill="#fbb832"/><path d="m63 176.6 22 7v-76h-67l-18 65h42.5l8.8-25.1 11.7 4.1z" fill="#f19033"/><path d="m159 132.9h-74v-11.1h70.9z" fill="#d54e4f"/><path d="m11 132.9h74v-11.1h-70.9z" fill="#c34445"/><path d="m123.7 161.8h-16.7v-10.2l11.7-4.1z" fill="#f37e30"/><path d="m46.3 161.8h16.7v-10.2l-11.7-4.1z" fill="#e3512f"/></svg>