<svg enable-background="new 0 0 120.3 166.4" viewBox="0 0 120.3 166.4" xmlns="http://www.w3.org/2000/svg"><path d="m26 15.6 3.3 8.1 3 7.3h13.3v-7.3-13.5l14.5-10.2v73.2h-44l-16.1-62z" fill="#fbb832"/><path d="m29.3 23.7h16.3v7.3h-13.3z" fill="#f27e30"/><path d="m94.3 15.6-3.3 8.1-3 7.3h-13.3v-7.3-13.5l-14.6-10.2v73.2h44.1l16.1-62z" fill="#f19033"/><path d="m91 23.7h-16.3v7.3h13.3z" fill="#e2522f"/><path d="m60.1 34.9c-8.4 0-15.2 6.8-15.2 15.2h15.2z" fill="#f18f90"/><path d="m60.1 65.3c-8.4 0-15.2-6.8-15.2-15.2h15.2z" fill="#ee5756"/><path d="m60.1 34.9c8.4-.1 15.3 6.7 15.3 15.1l-15.2.1z" fill="#e53536"/><path d="m60.1 65.3c8.4 0 15.2-6.8 15.2-15.2h-15.2z" fill="#a52128"/><circle cx="60.1" cy="50.2" fill="#fff" r="5.2"/><path d="m94.3 150.8-3.3-8.1-3-7.3h-13.3v7.3 13.5l-14.6 10.2v-73.2h44.1l16.1 62z" fill="#fbb832"/><path d="m91 142.7h-16.3v-7.3h13.3z" fill="#f27e30"/><path d="m26 150.8 3.3-8.1 3-7.3h13.3v7.3 13.5l14.5 10.2v-73.2h-44l-16.1 62z" fill="#f19033"/><path d="m29.3 142.7h16.3v-7.3h-13.3z" fill="#e2522f"/><path d="m60.2 131.5c8.4 0 15.2-6.8 15.2-15.2h-15.2z" fill="#f18f90"/><path d="m60.2 101.1c8.4 0 15.2 6.8 15.2 15.2h-15.2z" fill="#ee5756"/><path d="m60.2 131.4c-8.4.1-15.3-6.7-15.3-15.1l15.2-.1z" fill="#e53536"/><path d="m60.1 101.1c-8.4 0-15.2 6.8-15.2 15.2h15.2z" fill="#a52128"/><circle cx="60.1" cy="116.2" fill="#fff" r="5.2"/><g fill="#a52128"><circle cx="46.8" cy="83.2" r="5.8"/><circle cx="73.3" cy="83" r="5.8"/></g></svg>