<svg enable-background="new 0 0 121.1 167.3" viewBox="0 0 121.1 167.3" xmlns="http://www.w3.org/2000/svg"><path d="m60.6 0v74.6h-43.4l-17.2-67.6 30.3 40.6z" fill="#fbb832"/><path d="m30.3 47.6-30.3-40.6 38.6 27.6z" fill="#f27f31"/><path d="m60.6 0v74.6h43.4l17.1-67.6-30.3 40.6z" fill="#f19033"/><path d="m90.8 47.6 30.3-40.6-38.5 27.6z" fill="#e2512f"/><path d="m60.6 32.4c-8.4 0-15.2 6.8-15.2 15.2h15.2z" fill="#f18f90"/><path d="m60.6 62.8c-8.4 0-15.2-6.8-15.2-15.2h15.2z" fill="#ee5756"/><path d="m60.6 32.4c8.4-.1 15.3 6.7 15.3 15.1l-15.2.1z" fill="#e53536"/><path d="m60.6 62.8c8.4 0 15.2-6.8 15.2-15.2h-15.2z" fill="#a52128"/><circle cx="60.6" cy="47.7" fill="#fff" r="5.2"/><path d="m60.6 167.3v-74.6h43.4l17.1 67.6-30.3-40.6z" fill="#fbb832"/><path d="m90.8 119.7 30.3 40.6-38.6-27.6z" fill="#f27f31"/><path d="m60.6 134.9c8.4 0 15.2-6.8 15.2-15.2h-15.2z" fill="#f18f90"/><path d="m60.6 104.4c8.4 0 15.2 6.8 15.2 15.2h-15.2z" fill="#ee5756"/><path d="m60.6 167.3v-74.6h-43.4l-17.2 67.6 30.3-40.6z" fill="#f19033"/><path d="m30.3 119.7-30.3 40.6 38.6-27.6z" fill="#e2512f"/><path d="m60.6 134.8c-8.4.1-15.3-6.7-15.3-15.1l15.2-.1z" fill="#e53536"/><path d="m60.5 104.4c-8.4 0-15.2 6.8-15.2 15.2h15.2z" fill="#a52128"/><circle cx="60.5" cy="119.6" fill="#fff" r="5.2"/><g fill="#ee5756"><circle cx="47.4" cy="83.7" r="5.8"/><circle cx="73.9" cy="83.5" r="5.8"/></g></svg>